<?xml version="1.0" encoding="UTF-8"?>
<svg id="Layer_1" data-name="Layer 1" xmlns="http://www.w3.org/2000/svg" viewBox="0 0 205.82949 229.20001">
  <defs>
    <style>
      .cls-1 {
        fill: #ffce1e;
      }
    </style>
  </defs>
  <path class="cls-1" d="m176.09411,63.105c-4.23157,11.36401-8.96463,17.92184-10.90186,20.31541-2.34598,2.87325-3.34262,6.61455-2.73386,10.2677l8.79004,52.62c.52081,3.11765,2.82837,5.63629,5.88861,6.42734.664.17163,1.33588.25491,2.00189.25491,2.40347,0,4.72406-1.08588,6.2637-3.02365.16013-.20154.31769-.40128.47604-.60352-.92371,2.10941-1.89996,4.19202-2.93005,6.25043-8.95215,17.88904-19.59564,29.08545-25.14154,34.16568-5.72748,5.24344-11.79883,10.81528-17.83713,16.49664.59427-3.8952,1.25421-8.37347,1.99127-13.53293.40176-2.85974,1.50226-5.62885,3.1824-8.00797,1.67175-2.3671,3.91534-4.33078,6.48825-5.67883,2.63571-1.38101,4.28714-4.11072,4.28714-7.08624v-53.82001c0-4.84827-3.94525-8.79306-8.79562-8.79367-2.24991,0-4.39383.8515-6.03687,2.39771-.02185.0206-.04364.04132-.06531.06216-4.12933,3.97464-9.34619,7.90601-15.49704,11.6796-5.1521,3.15195-10.1853,6.7106-14.96841,10.58405-2.15237,1.74799-5.02795,4.38287-7.55219,6.76456-2.48904-2.33606-5.07596-4.59296-7.73975-6.75131-4.77402-3.86624-9.80722-7.42493-14.95135-10.57208-6.15955-3.77887-11.37634-7.71017-15.50546-11.68472-.02139-.0206-.04288-.04108-.06454-.06143-1.64304-1.54666-3.78729-2.39847-6.03674-2.39847-2.2413-.00024-4.3768.8414-6.01309,2.36996-1.76901,1.6525-2.7836,3.9939-2.7836,6.42371v53.82001c0,2.97559,1.65155,5.70538,4.28729,7.08627,2.58325,1.35345,4.8302,3.31705,6.49805,5.67871,1.67175,2.36716,2.7731,5.14261,3.1843,8.02097.7327,5.1539,1.38928,9.62762,1.98108,13.51978-5.93698-5.59265-11.97333-11.1275-17.82938-16.4971-5.54623-5.07623-16.18814-16.26489-25.14584-34.16504-1.0273-2.05286-2.00215-4.13223-2.92369-6.23584.15413.19675.30888.39288.46469.58899,1.53976,1.9379,3.86003,3.02359,6.2637,3.02359.66583,0,1.33807-.08331,2.00189-.25488,3.06026-.79105,5.36784-3.30975,5.8886-6.42737l8.78259-52.57663c.62875-3.64076-.35684-7.39261-2.70859-10.2991-1.9541-2.41068-6.68347-8.95712-10.91696-20.33153,8.62955,12.75926,19.21313,23.77322,31.38907,32.56508,1.40057,1.01132,3.04285,1.5141,4.68271,1.5141,1.76544,0,3.52811-.58276,4.98312-1.74112,1.61334-1.28436,2.6218-3.09552,2.92279-5.03148,6.19891,7.60551,13.9433,16.15388,23.61307,25.60405,1.50116,1.46704,3.51074,2.27856,5.591,2.27856.23691,0,.47498-.01053.71304-.03183,2.3287-.20825,4.4498-1.42474,5.80542-3.32965l26.07346-36.63762c-1.35864,4.15717-2.51965,6.95474-2.83151,7.68698l-.03107.0732c-1.39395,3.30505-.4176,7.13394,2.38882,9.36795,1.45505,1.15829,3.21747,1.74097,4.98294,1.74097,1.63953,0,3.28168-.50269,4.68204-1.51361,12.17734-8.791,22.76285-19.80487,31.39243-32.56142M191.59905,0s-4.57996,55.25-51.57996,89.18001c.26996-.64005,9.38-21.65005,8.92999-43.55l-46.03006,64.67999C60.2091,68.57001,56.87908,45.64,56.87908,45.64c-.44998,21.91,8.65997,42.92001,8.93002,43.56001C18.81908,55.26996,14.22904.01001,14.22904.01001c-3.59995,54.83995,14.86006,81.87999,20.21004,88.48.89001,1.09995,1.28,2.50999,1.03995,3.90001l-8.78993,52.62C4.21909,116.72995.2391,80.26996.2391,80.26996c-3.41,67.41003,30.59,104.63,42.38998,115.43005,6.38,5.85001,12.77002,11.70993,19.06,17.66l16.75,15.84c-1.39005-1.95001-4.59003-23.13-6.64005-37.55005-.59995-4.19995-2.19-8.13995-4.57001-11.50995-2.37997-3.37006-5.56-6.18005-9.31998-8.14999v-53.82001c0-.48218.38733-.7937.79568-.79367.19299,0,.39069.06958.55435.2236,5.33997,5.14008,11.53995,9.47006,16.87,12.74002,4.91995,3.00998,9.63,6.35004,14.09995,9.97003,4.48007,3.63,8.72006,7.53995,12.69,11.72995,0,0,8.21005-8.11993,12.68002-11.75,4.47003-3.61993,9.18002-6.95999,14.10004-9.96994,5.32999-3.26999,11.52994-7.60004,16.87-12.74005.1637-.15408.36133-.22366.55432-.22363.40826.00003.79562.31155.79562.79364v53.82001c-3.75998,1.97003-6.92993,4.78003-9.31,8.15002-2.38,3.37003-3.97995,7.31-4.56998,11.51001-2.06003,14.42001-5.25998,35.59995-6.63995,37.54999l16.73999-15.84003c6.29999-5.94995,12.67999-11.81,19.07001-17.65997,11.78998-10.79999,45.79999-48.02005,42.38-115.42999,0,0-3.98007,36.45996-26.45001,64.74002l-8.79004-52.62003c-.22995-1.37997.15002-2.79999,1.04004-3.89005,5.35001-6.60994,23.82001-33.64999,20.20996-88.47995h0Z"/>
</svg>