<svg width="143" height="105" viewBox="0 0 143 105" fill="none" xmlns="http://www.w3.org/2000/svg">
<path d="M23.64 33.32C23.5333 33.3467 23.3733 33.4933 23.16 33.76C22.9733 34.0267 22.84 34.3067 22.76 34.6C22.6267 35.0267 22.6667 35.3733 22.88 35.64C23.44 36.3067 24.16 37.0933 25.04 38C25.92 38.88 26.8 39.72 27.68 40.52C28.5867 41.32 29.36 41.9333 30 42.36C29.52 43.64 28.76 44.6667 27.72 45.44C26.7067 46.1867 25.5733 46.5467 24.32 46.52C23.0667 46.4933 21.84 45.9333 20.64 44.84C20.48 44.68 20.1733 44.3333 19.72 43.8C19.2667 43.24 18.7467 42.5867 18.16 41.84C17.5733 41.0933 16.9867 40.3467 16.4 39.6C15.8133 38.8533 15.3067 38.2 14.88 37.64C14.4533 37.08 14.1867 36.7333 14.08 36.6C13.5733 35.9333 13.0933 35.7867 12.64 36.16C12.1867 36.5333 11.9067 37.3067 11.8 38.48C11.7467 39.1733 11.7467 39.9733 11.8 40.88C11.88 41.76 11.9867 42.5467 12.12 43.24C12.28 43.9333 12.44 44.3467 12.6 44.48C12.04 44.9067 11.3467 45.3067 10.52 45.68C9.69333 46.0533 8.74667 46.28 7.68 46.36C7.28 46.3867 6.81333 46.28 6.28 46.04C5.74667 45.8 5.28 45.4133 4.88 44.88C4.50667 44.32 4.30667 43.6267 4.28 42.8C4.28 42.5867 4.26667 42.0267 4.24 41.12C4.24 40.2133 4.22667 39.1067 4.2 37.8C4.2 36.4667 4.2 35.0933 4.2 33.68C4.2 32.2667 4.18667 30.9333 4.16 29.68C4.16 28.4267 4.16 27.4133 4.16 26.64C4.16 25.8667 4.16 25.48 4.16 25.48C4.16 23.9067 4.12 22.6 4.04 21.56C3.96 20.4933 3.64 19.68 3.08 19.12C2.57333 18.6133 2.18667 17.88 1.92 16.92C1.68 15.96 1.57333 15.0533 1.6 14.2C1.70667 14.2267 2.02667 14.2667 2.56 14.32C3.09333 14.3467 3.61333 14.3867 4.12 14.44C4.46667 14.44 4.96 14.44 5.6 14.44C6.26667 14.4133 6.97333 14.3867 7.72 14.36C8.46667 14.3333 9.16 14.32 9.8 14.32C10.44 14.2933 10.92 14.2667 11.24 14.24C11.48 14.24 11.92 14.24 12.56 14.24C13.2267 14.2133 14 14.2 14.88 14.2C15.76 14.2 16.6533 14.2133 17.56 14.24C18.4667 14.24 19.3067 14.2667 20.08 14.32C20.8533 14.3733 21.4533 14.44 21.88 14.52C23.64 14.84 25 15.4267 25.96 16.28C26.92 17.1333 27.6 18.16 28 19.36C28.4267 20.56 28.68 21.8667 28.76 23.28C28.8133 24.48 28.68 25.7333 28.36 27.04C28.04 28.3467 27.4933 29.56 26.72 30.68C25.9467 31.8 24.92 32.68 23.64 33.32ZM11.88 24.72C11.88 25.5733 12.08 26.2133 12.48 26.64C12.88 27.04 13.2533 27.28 13.6 27.36C14.08 27.4667 14.6933 27.48 15.44 27.4C16.1867 27.2933 16.9333 27.1067 17.68 26.84C18.4267 26.5467 19.0533 26.1733 19.56 25.72C20.0933 25.2667 20.36 24.7467 20.36 24.16C20.36 23.3867 20.04 22.8 19.4 22.4C18.76 21.9733 17.9467 21.7067 16.96 21.6C16 21.4933 15.04 21.52 14.08 21.68C13.3333 21.7867 12.7733 22.12 12.4 22.68C12.0267 23.24 11.8533 23.92 11.88 24.72ZM53.3616 35.96C54.0282 36.4133 54.4549 37.0667 54.6416 37.92C54.8549 38.7467 54.8282 39.6533 54.5616 40.64C54.3216 41.6267 53.8282 42.5733 53.0816 43.48C52.3349 44.36 51.3216 45.0933 50.0416 45.68C48.7882 46.2667 47.2682 46.5733 45.4816 46.6C43.9882 46.6267 42.5216 46.44 41.0816 46.04C39.6682 45.64 38.3749 45.0267 37.2016 44.2C36.0549 43.3733 35.1216 42.3067 34.4016 41C33.6816 39.6933 33.2816 38.1333 33.2016 36.32C33.1749 35.9467 33.1749 35.56 33.2016 35.16C33.2282 34.76 33.2549 34.3467 33.2816 33.92C33.2816 33.8133 33.2816 33.7067 33.2816 33.6C33.3082 33.4933 33.3349 33.3867 33.3616 33.28C33.6282 31.68 34.1749 30.2133 35.0016 28.88C35.8549 27.5467 36.8949 26.4133 38.1216 25.48C39.3482 24.5467 40.6549 23.8667 42.0416 23.44C43.4549 22.9867 44.8416 22.8267 46.2016 22.96C48.3082 23.1733 49.9349 23.7333 51.0816 24.64C52.2549 25.5467 53.0149 26.6667 53.3616 28C53.7349 29.3067 53.7482 30.72 53.4016 32.24C53.2149 32.9867 52.7882 33.7333 52.1216 34.48C51.4816 35.2 50.6816 35.8533 49.7216 36.44C48.7616 37 47.7349 37.44 46.6416 37.76C45.5749 38.0533 44.5349 38.1733 43.5216 38.12C43.0149 38.0933 42.7482 38.2533 42.7216 38.6C42.6949 38.92 42.8416 39.28 43.1616 39.68C43.4816 40.0533 43.9082 40.3067 44.4416 40.44C45.6949 40.7067 46.8682 40.72 47.9616 40.48C49.0816 40.2133 49.9349 39.8533 50.5216 39.4C51.0016 39.0267 51.5082 38.5333 52.0416 37.92C52.5749 37.28 53.0149 36.6267 53.3616 35.96ZM44.6016 31.92C45.2149 31.8667 45.7482 31.68 46.2016 31.36C46.6816 31.0133 46.9216 30.6533 46.9216 30.28C46.9482 29.7467 46.8149 29.32 46.5216 29C46.2549 28.6533 45.7882 28.4933 45.1216 28.52C44.3749 28.5467 43.6549 28.6533 42.9616 28.84C42.2682 29.0267 41.8549 29.4133 41.7216 30C41.6416 30.4 41.7616 30.7467 42.0816 31.04C42.4016 31.3333 42.8016 31.56 43.2816 31.72C43.7616 31.8533 44.2016 31.92 44.6016 31.92ZM79.8063 40.92C79.8329 42.0933 80.0063 42.92 80.3263 43.4C80.6729 43.8533 80.8463 44.08 80.8463 44.08C80.8463 44.08 80.6063 44.2533 80.1263 44.6C79.6729 44.92 79.0596 45.2533 78.2863 45.6C77.5129 45.9467 76.6463 46.12 75.6863 46.12C74.2729 46.12 73.3529 45.7333 72.9263 44.96C72.4996 44.1867 72.2729 43.1867 72.2463 41.96C72.2463 41.7467 72.2596 41.28 72.2863 40.56C72.3129 39.84 72.3263 39.0267 72.3263 38.12C72.3529 37.1867 72.3529 36.3333 72.3263 35.56C72.2996 34.76 72.2463 34.2 72.1663 33.88C71.8729 32.8133 71.2996 32.3467 70.4463 32.48C69.7796 32.56 69.1529 32.9467 68.5663 33.64C67.9796 34.3067 67.4996 35.1067 67.1263 36.04C66.7529 36.9733 66.5663 37.8533 66.5663 38.68C66.5663 39.1067 66.5396 39.5333 66.4863 39.96C66.4596 40.36 66.4329 40.7333 66.4062 41.08C66.3796 41.32 66.4063 41.6133 66.4863 41.96C66.5929 42.3067 66.7796 42.5867 67.0463 42.8C66.8596 43.12 66.4863 43.5333 65.9263 44.04C65.3929 44.5467 64.8063 45.0133 64.1663 45.44C63.5529 45.84 63.0196 46.0667 62.5663 46.12C62.1396 46.1467 61.6329 46.0133 61.0463 45.72C60.4863 45.4267 59.9929 44.9867 59.5663 44.4C59.1663 43.8133 58.9529 43.1067 58.9263 42.28C58.9263 42.0667 58.9263 41.5733 58.9263 40.8C58.9529 40.0267 58.9663 39.0933 58.9663 38C58.9929 36.9067 59.0063 35.7467 59.0063 34.52C59.0329 33.2933 59.0462 32.1067 59.0462 30.96C59.0462 29.8133 59.0462 28.8267 59.0462 28C59.0462 27.28 58.9529 26.5867 58.7663 25.92C58.6063 25.2267 58.4329 24.6667 58.2463 24.24C58.0863 23.7867 58.0063 23.56 58.0063 23.56C58.2463 23.5067 58.6596 23.4667 59.2463 23.44C59.8596 23.4133 60.5396 23.4267 61.2863 23.48C62.0329 23.5333 62.7663 23.6533 63.4863 23.84C64.2329 24.0267 64.8596 24.32 65.3663 24.72C65.8996 25.12 66.4329 25.3733 66.9662 25.48C67.5263 25.56 67.9663 25.5067 68.2863 25.32C69.2196 24.7067 70.1663 24.1733 71.1263 23.72C72.0863 23.2667 73.0196 22.9867 73.9263 22.88C74.3796 22.8267 74.9129 22.8533 75.5263 22.96C76.1396 23.04 76.7396 23.24 77.3263 23.56C77.9396 23.88 78.4596 24.3333 78.8863 24.92C79.3396 25.5067 79.6196 26.2533 79.7263 27.16C79.9129 28.7067 79.9663 30.6 79.8863 32.84C79.8063 35.0533 79.7796 37.7467 79.8063 40.92ZM101.061 23.8C101.328 24.0667 101.528 24.56 101.661 25.28C101.821 25.9733 101.861 26.7467 101.781 27.6C101.728 28.4267 101.528 29.1867 101.181 29.88C100.861 30.5467 100.368 31 99.7009 31.24C98.6609 31.6133 97.9009 32.28 97.4209 33.24C96.9409 34.2 96.6609 35.4133 96.5809 36.88V40.28C96.6343 40.7067 96.8076 41.0533 97.1009 41.32C97.4209 41.5867 97.7276 41.7733 98.0209 41.88C98.3409 41.9867 98.5009 42.04 98.5009 42.04C98.5009 42.04 98.4476 42.2267 98.3409 42.6C98.2609 42.9733 98.1009 43.4133 97.8609 43.92C97.6209 44.4267 97.2743 44.92 96.8209 45.4C96.3676 45.8533 95.7809 46.1733 95.0609 46.36C94.6876 46.44 94.1809 46.4533 93.5409 46.4C92.9276 46.3733 92.3009 46.2533 91.6609 46.04C91.0209 45.8267 90.4876 45.5333 90.0609 45.16C89.8209 44.9467 89.6209 44.72 89.4609 44.48C89.3009 44.24 89.1809 43.88 89.1009 43.4C89.0476 42.92 89.0209 42.24 89.0209 41.36V37.08C88.9943 35.5333 88.6609 34.2533 88.0209 33.24C87.3809 32.2 86.5409 31.3067 85.5009 30.56C85.0209 30.2133 84.6743 29.6533 84.4609 28.88C84.2743 28.08 84.1543 27.24 84.1009 26.36C84.0476 25.48 84.0343 24.7333 84.0609 24.12C84.1943 24.1467 84.5543 24.2 85.1409 24.28C85.7276 24.36 86.2343 24.4 86.6609 24.4C87.5143 24.3733 88.1009 24.04 88.4209 23.4C88.7409 22.76 88.9009 21.96 88.9009 21L88.8609 17.44C89.1009 17.4133 89.5009 17.3867 90.0609 17.36C90.6476 17.3067 91.2876 17.3067 91.9809 17.36C92.6743 17.4133 93.3409 17.5467 93.9809 17.76C94.6476 17.9467 95.2076 18.2533 95.6609 18.68C96.1409 19.1067 96.4209 19.68 96.5009 20.4C96.5009 20.48 96.5009 20.5867 96.5009 20.72C96.5276 20.8267 96.5409 20.96 96.5409 21.12H96.5809C96.5809 21.4667 96.6209 21.88 96.7009 22.36C96.8076 22.84 96.9543 23.24 97.1409 23.56C97.3276 23.8267 97.6209 24.0267 98.0209 24.16C98.4209 24.2667 98.8076 24.3333 99.1809 24.36C99.5809 24.36 99.8743 24.3333 100.061 24.28C100.354 24.2 100.568 24.1333 100.701 24.08C100.834 24 100.954 23.9067 101.061 23.8ZM125.907 38.76C125.933 39.3467 125.973 40.0667 126.027 40.92C126.107 41.7733 126.28 42.6 126.547 43.4C126.813 44.2 127.24 44.84 127.827 45.32C127.16 45.7733 126.48 46.0933 125.787 46.28C125.093 46.4933 124.413 46.5467 123.747 46.44C123.56 46.3867 123.36 46.32 123.147 46.24C122.933 46.1867 122.64 46.1067 122.267 46C121.653 45.8133 120.933 45.7733 120.107 45.88C119.28 45.9867 118.413 46.12 117.507 46.28C116.627 46.4667 115.76 46.56 114.907 46.56C113.52 46.56 112.133 46.32 110.747 45.84C109.36 45.3333 108.107 44.56 106.987 43.52C105.867 42.48 105.013 41.16 104.427 39.56C103.84 37.96 103.667 36.04 103.907 33.8C104.067 32.2533 104.507 30.84 105.227 29.56C105.947 28.2533 106.827 27.1333 107.867 26.2C108.933 25.24 110.053 24.5067 111.227 24C112.427 23.4667 113.587 23.2133 114.707 23.24C115.56 23.2667 116.213 23.2933 116.667 23.32C117.147 23.3467 117.76 23.4133 118.507 23.52C118.96 23.5733 119.533 23.5067 120.227 23.32C120.92 23.1333 121.613 22.9333 122.307 22.72C123.027 22.48 123.64 22.36 124.147 22.36C124.92 22.3333 125.467 22.36 125.787 22.44C126.107 22.4933 126.373 22.5467 126.587 22.6C126.427 23.08 126.293 23.8 126.187 24.76C126.08 25.72 126 26.8133 125.947 28.04C125.92 29.24 125.893 30.4933 125.867 31.8C125.84 33.1067 125.827 34.36 125.827 35.56C125.853 36.76 125.88 37.8267 125.907 38.76ZM110.867 35.08C110.92 36.4133 111.16 37.4533 111.587 38.2C112.04 38.92 112.573 39.4267 113.187 39.72C113.827 40.0133 114.44 40.16 115.027 40.16C116.2 40.1867 117.067 39.7333 117.627 38.8C118.187 37.8667 118.453 36.5733 118.427 34.92C118.427 34.4667 118.373 33.9333 118.267 33.32C118.187 32.7067 118.027 32.1067 117.787 31.52C117.573 30.9333 117.267 30.44 116.867 30.04C116.493 29.64 116 29.44 115.387 29.44C114.16 29.44 113.08 29.8933 112.147 30.8C111.24 31.7067 110.813 33.1333 110.867 35.08ZM131.694 42.72C131.694 42.5067 131.694 41.9333 131.694 41C131.694 40.04 131.694 38.8533 131.694 37.44C131.694 36.0267 131.681 34.48 131.654 32.8C131.654 31.0933 131.654 29.3733 131.654 27.64C131.654 25.9067 131.641 24.2667 131.614 22.72C131.614 21.1467 131.601 19.7867 131.574 18.64C131.547 17.5467 131.454 16.64 131.294 15.92C131.134 15.1733 131.041 14.72 131.014 14.56C131.334 14.5067 131.814 14.4933 132.454 14.52C133.094 14.52 133.801 14.6 134.574 14.76C135.374 14.8933 136.134 15.12 136.854 15.44C137.574 15.7333 138.174 16.16 138.654 16.72C139.134 17.2533 139.387 17.9333 139.414 18.76C139.441 19.2667 139.454 20.16 139.454 21.44C139.481 22.6933 139.494 24.1733 139.494 25.88C139.521 27.56 139.547 29.2933 139.574 31.08C139.601 32.84 139.614 34.5067 139.614 36.08C139.641 37.6533 139.654 38.9733 139.654 40.04C139.681 41.08 139.694 41.6933 139.694 41.88C139.694 42.44 139.841 42.9867 140.134 43.52C140.454 44.0267 140.787 44.3467 141.134 44.48C140.974 44.6933 140.614 44.9733 140.054 45.32C139.494 45.6667 138.841 45.9867 138.094 46.28C137.374 46.5733 136.641 46.76 135.894 46.84C135.281 46.8933 134.641 46.7467 133.974 46.4C133.334 46.08 132.787 45.6 132.334 44.96C131.907 44.32 131.694 43.5733 131.694 42.72Z" fill="black"/>
<path d="M35.363 68.4C35.035 69.4113 34.5293 70.1493 33.846 70.614C33.1627 71.0787 32.452 71.27 31.714 71.188C30.976 71.0787 30.3473 70.7097 29.828 70.081C30.2927 69.7257 30.4293 69.343 30.238 68.933C30.074 68.4957 29.6503 68.1403 28.967 67.867C28.2837 67.5663 27.409 67.457 26.343 67.539C25.2497 67.5937 24.1427 67.949 23.022 68.605C21.9287 69.261 21.013 70.204 20.275 71.434C19.537 72.664 19.127 74.1947 19.045 76.026C18.963 77.912 19.1543 79.4427 19.619 80.618C20.0837 81.7933 20.6577 82.6953 21.341 83.324C22.0517 83.9253 22.7623 84.3627 23.473 84.636C24.1837 84.882 24.7577 85.046 25.195 85.128C25.769 85.2373 26.425 85.3193 27.163 85.374C27.9283 85.4013 28.6937 85.3467 29.459 85.21C30.2243 85.0733 30.8803 84.841 31.427 84.513C31.919 84.2123 32.534 83.816 33.272 83.324C34.01 82.8047 34.7207 82.2307 35.404 81.602C36.0873 80.9733 36.593 80.331 36.921 79.675C37.8503 80.3037 38.4243 81.192 38.643 82.34C38.889 83.488 38.7933 84.718 38.356 86.03C37.9187 87.342 37.1533 88.5857 36.06 89.761C34.994 90.909 33.6 91.852 31.878 92.59C30.156 93.3007 28.1197 93.6287 25.769 93.574C24.6757 93.5467 23.4183 93.3417 21.997 92.959C20.603 92.5763 19.1953 91.975 17.774 91.155C16.3527 90.3077 15.0543 89.2007 13.879 87.834C12.731 86.44 11.8563 84.718 11.255 82.668C10.6537 80.618 10.4897 78.199 10.763 75.411C11.009 72.7597 11.665 70.4773 12.731 68.564C13.8243 66.6507 15.15 65.0927 16.708 63.89C18.2933 62.66 19.9607 61.7443 21.71 61.143C23.4867 60.5143 25.1813 60.1863 26.794 60.159C28.4067 60.1043 29.8007 60.3503 30.976 60.897C32.1787 61.4437 33.149 62.1543 33.887 63.029C34.625 63.8763 35.117 64.792 35.363 65.776C35.6363 66.7327 35.6363 67.6073 35.363 68.4ZM67.3686 85.292C67.6966 86.0847 68.1613 86.85 68.7626 87.588C69.364 88.2987 69.8833 88.8317 70.3206 89.187C69.6646 90.5537 68.8583 91.5513 67.9016 92.18C67.109 92.6993 66.2616 93 65.3596 93.082C64.8676 93.1367 64.3073 93.0957 63.6786 92.959C63.05 92.8223 62.394 92.4397 61.7106 91.811C61.0546 91.155 60.3986 90.1163 59.7426 88.695C59.5513 88.2303 59.1276 87.9023 58.4716 87.711C57.8156 87.5197 57.1186 87.4103 56.3806 87.383C55.6426 87.3283 55.0413 87.301 54.5766 87.301C54.112 87.301 53.538 87.3147 52.8546 87.342C52.1986 87.3693 51.5973 87.4787 51.0506 87.67C50.504 87.8613 50.176 88.203 50.0666 88.695C49.9573 89.1323 49.9436 89.5833 50.0256 90.048C50.1076 90.5127 50.2853 90.8133 50.5586 90.95C50.094 91.3873 49.6293 91.77 49.1646 92.098C48.7273 92.426 48.2763 92.6857 47.8116 92.877C47.2376 93.123 46.6363 93.246 46.0076 93.246C45.4063 93.246 44.723 93.1093 43.9576 92.836C43.6023 92.6993 43.2333 92.4533 42.8506 92.098C42.468 91.7427 42.2083 91.2507 42.0716 90.622C41.935 89.9933 42.0443 89.2007 42.3996 88.244C42.427 88.162 42.5636 87.7247 42.8096 86.932C43.0556 86.1393 43.37 85.1007 43.7526 83.816C44.1626 82.504 44.6 81.0553 45.0646 79.47C45.5566 77.8847 46.0486 76.2583 46.5406 74.591C47.06 72.8963 47.552 71.27 48.0166 69.712C48.5086 68.154 48.946 66.7463 49.3286 65.489C49.7113 64.2317 50.012 63.234 50.2306 62.496C50.4493 61.758 50.5586 61.389 50.5586 61.389C50.8046 61.2523 51.2556 61.0883 51.9116 60.897C52.595 60.6783 53.3193 60.5553 54.0846 60.528C54.932 60.4733 55.752 60.5827 56.5446 60.856C57.3646 61.1293 57.9933 61.676 58.4306 62.496C58.622 62.824 58.909 63.4527 59.2916 64.382C59.6743 65.3113 60.1253 66.432 60.6446 67.744C61.164 69.056 61.7106 70.4637 62.2846 71.967C62.8586 73.443 63.419 74.919 63.9656 76.395C64.5396 77.8437 65.059 79.1967 65.5236 80.454C65.9883 81.7113 66.3846 82.7773 66.7126 83.652C67.0406 84.4993 67.2593 85.046 67.3686 85.292ZM54.4536 80.003C55.1643 79.9483 55.5743 79.7433 55.6836 79.388C55.8203 79.0327 55.9023 78.6227 55.9296 78.158C55.9296 77.8573 55.875 77.4883 55.7656 77.051C55.6836 76.6137 55.547 76.231 55.3556 75.903C55.1916 75.5477 54.973 75.37 54.6996 75.37C54.317 75.37 53.8933 75.6433 53.4286 76.19C52.9913 76.7093 52.7453 77.2423 52.6906 77.789C52.6086 78.3083 52.6496 78.814 52.8136 79.306C53.005 79.798 53.5516 80.0303 54.4536 80.003ZM96.1724 80.003C96.0631 80.0303 95.8991 80.1807 95.6804 80.454C95.4891 80.7273 95.3524 81.0143 95.2704 81.315C95.1337 81.7523 95.1747 82.1077 95.3934 82.381C95.9674 83.0643 96.7054 83.8707 97.6074 84.8C98.5094 85.702 99.4114 86.563 100.313 87.383C101.243 88.203 102.035 88.8317 102.691 89.269C102.199 90.581 101.42 91.6333 100.354 92.426C99.3157 93.1913 98.1541 93.5603 96.8694 93.533C95.5847 93.5057 94.3274 92.9317 93.0974 91.811C92.9334 91.647 92.6191 91.2917 92.1544 90.745C91.6897 90.171 91.1567 89.5013 90.5554 88.736C89.9541 87.9707 89.3527 87.2053 88.7514 86.44C88.1501 85.6747 87.6307 85.005 87.1934 84.431C86.7561 83.857 86.4827 83.5017 86.3734 83.365C85.8541 82.6817 85.3621 82.5313 84.8974 82.914C84.4327 83.2967 84.1457 84.0893 84.0364 85.292C83.9817 86.0027 83.9817 86.8227 84.0364 87.752C84.1184 88.654 84.2277 89.4603 84.3644 90.171C84.5284 90.8817 84.6924 91.3053 84.8564 91.442C84.2824 91.8793 83.5717 92.2893 82.7244 92.672C81.8771 93.0547 80.9067 93.287 79.8134 93.369C79.4034 93.3963 78.9251 93.287 78.3784 93.041C77.8317 92.795 77.3534 92.3987 76.9434 91.852C76.5607 91.278 76.3557 90.5673 76.3284 89.72C76.3284 89.5013 76.3147 88.9273 76.2874 87.998C76.2874 87.0687 76.2737 85.9343 76.2464 84.595C76.2464 83.2283 76.2464 81.8207 76.2464 80.372C76.2464 78.9233 76.2327 77.5567 76.2054 76.272C76.2054 74.9873 76.2054 73.9487 76.2054 73.156C76.2054 72.3633 76.2054 71.967 76.2054 71.967C76.2054 70.3543 76.1644 69.015 76.0824 67.949C76.0004 66.8557 75.6724 66.022 75.0984 65.448C74.5791 64.9287 74.1827 64.177 73.9094 63.193C73.6634 62.209 73.5541 61.2797 73.5814 60.405C73.6907 60.4323 74.0187 60.4733 74.5654 60.528C75.1121 60.5553 75.6451 60.5963 76.1644 60.651C76.5197 60.651 77.0254 60.651 77.6814 60.651C78.3647 60.6237 79.0891 60.5963 79.8544 60.569C80.6197 60.5417 81.3304 60.528 81.9864 60.528C82.6424 60.5007 83.1344 60.4733 83.4624 60.446C83.7084 60.446 84.1594 60.446 84.8154 60.446C85.4987 60.4187 86.2914 60.405 87.1934 60.405C88.0954 60.405 89.0111 60.4187 89.9404 60.446C90.8697 60.446 91.7307 60.4733 92.5234 60.528C93.3161 60.5827 93.9311 60.651 94.3684 60.733C96.1724 61.061 97.5664 61.6623 98.5504 62.537C99.5344 63.4117 100.231 64.464 100.641 65.694C101.079 66.924 101.338 68.2633 101.42 69.712C101.475 70.942 101.338 72.2267 101.01 73.566C100.682 74.9053 100.122 76.149 99.3294 77.297C98.5367 78.445 97.4844 79.347 96.1724 80.003ZM84.1184 71.188C84.1184 72.0627 84.3234 72.7187 84.7334 73.156C85.1434 73.566 85.5261 73.812 85.8814 73.894C86.3734 74.0033 87.0021 74.017 87.7674 73.935C88.5327 73.8257 89.2981 73.6343 90.0634 73.361C90.8287 73.0603 91.4711 72.6777 91.9904 72.213C92.5371 71.7483 92.8104 71.2153 92.8104 70.614C92.8104 69.8213 92.4824 69.22 91.8264 68.81C91.1704 68.3727 90.3367 68.0993 89.3254 67.99C88.3414 67.8807 87.3574 67.908 86.3734 68.072C85.6081 68.1813 85.0341 68.523 84.6514 69.097C84.2687 69.671 84.0911 70.368 84.1184 71.188ZM119.093 60.159C120.706 60.159 122.25 60.446 123.726 61.02C125.229 61.5667 126.487 62.3047 127.498 63.234C128.537 64.1633 129.152 65.161 129.343 66.227C129.48 66.9377 129.384 67.7303 129.056 68.605C128.728 69.4523 128.209 70.204 127.498 70.86C126.787 71.4887 125.926 71.8303 124.915 71.885C124.56 71.885 124.109 71.844 123.562 71.762C123.015 71.68 122.482 71.516 121.963 71.27C121.471 71.024 121.075 70.6687 120.774 70.204C121.184 69.9853 121.457 69.753 121.594 69.507C121.731 69.261 121.772 69.015 121.717 68.769C121.608 68.2223 121.28 67.7713 120.733 67.416C120.214 67.0607 119.571 66.842 118.806 66.76C118.369 66.7053 117.863 66.719 117.289 66.801C116.715 66.8557 116.182 67.047 115.69 67.375C115.225 67.6757 114.897 68.1813 114.706 68.892C114.597 69.302 114.61 69.753 114.747 70.245C114.911 70.7097 115.294 71.1607 115.895 71.598C116.496 72.008 117.412 72.3633 118.642 72.664C120.528 73.1013 122.277 73.5797 123.89 74.099C125.53 74.6183 126.965 75.2607 128.195 76.026C129.425 76.7913 130.368 77.748 131.024 78.896C131.707 80.0167 132.022 81.4243 131.967 83.119C131.94 84.2397 131.639 85.415 131.065 86.645C130.491 87.875 129.657 89.023 128.564 90.089C127.471 91.1277 126.131 91.975 124.546 92.631C122.961 93.287 121.157 93.615 119.134 93.615C117.849 93.615 116.524 93.5057 115.157 93.287C113.79 93.0683 112.492 92.7267 111.262 92.262C110.059 91.7973 108.993 91.1823 108.064 90.417C107.244 89.7063 106.656 88.818 106.301 87.752C105.973 86.686 105.905 85.62 106.096 84.554C106.287 83.4607 106.766 82.5313 107.531 81.766C108.324 81.0007 109.417 80.577 110.811 80.495C110.538 81.315 110.688 82.1213 111.262 82.914C111.863 83.6793 112.752 84.3353 113.927 84.882C115.102 85.4013 116.387 85.7157 117.781 85.825C119.23 85.9343 120.487 85.8797 121.553 85.661C122.646 85.4423 123.248 84.9913 123.357 84.308C123.494 83.488 123.33 82.832 122.865 82.34C122.4 81.848 121.758 81.479 120.938 81.233C120.118 80.9597 119.23 80.741 118.273 80.577C117.316 80.3857 116.428 80.1943 115.608 80.003C114.515 79.7023 113.408 79.3197 112.287 78.855C111.194 78.363 110.182 77.748 109.253 77.01C108.351 76.272 107.613 75.37 107.039 74.304C106.465 73.238 106.164 71.9943 106.137 70.573C106.11 68.9057 106.451 67.4297 107.162 66.145C107.873 64.833 108.843 63.7397 110.073 62.865C111.303 61.963 112.697 61.2933 114.255 60.856C115.84 60.3913 117.453 60.159 119.093 60.159Z" fill="#FFCD1C"/>
</svg>
